<svg xmlns="http://www.w3.org/2000/svg" viewBox="0 0 960 640" role="img" aria-labelledby="title">
  <title id="title">Future plans analysis screen</title>
  <rect width="960" height="640" rx="18" fill="#000"/>
  <rect x="42" y="52" width="145" height="536" rx="10" fill="#171717"/>
  <text x="86" y="102" fill="#fff" font-family="Arial, sans-serif" font-size="14" font-weight="700">DASHBOARD</text>
  <text x="86" y="158" fill="#fff" font-family="Arial, sans-serif" font-size="14" font-weight="700">EARNINGS</text>
  <text x="86" y="214" fill="#fff" font-family="Arial, sans-serif" font-size="14" font-weight="700">SPENDING</text>
  <text x="86" y="270" fill="#fff" font-family="Arial, sans-serif" font-size="14" font-weight="700">FUTURE PLANS</text>
  <text x="464" y="38" fill="#EC68D8" font-family="Arial Black, Arial, sans-serif" font-size="24" font-weight="900">tinkerer</text>
  <circle cx="908" cy="36" r="17" fill="#EC68D8"/>
  <rect x="208" y="72" width="292" height="510" rx="12" fill="#514AF1"/>
  <text x="232" y="108" fill="#fff" font-family="Arial Black, Arial, sans-serif" font-size="18">FUTURE PLANS</text>
  <g fill="#746EF8">
    <rect x="232" y="132" width="230" height="34" rx="5"/>
    <rect x="232" y="190" width="230" height="34" rx="5"/>
    <rect x="232" y="248" width="230" height="34" rx="5"/>
    <rect x="232" y="306" width="230" height="34" rx="5"/>
    <rect x="232" y="364" width="230" height="34" rx="5"/>
    <rect x="232" y="422" width="230" height="34" rx="5"/>
  </g>
  <circle cx="414" cy="224" r="16" fill="#DDF237"/>
  <rect x="232" y="512" width="104" height="42" rx="8" fill="#746EF8"/>
  <rect x="348" y="512" width="104" height="42" rx="8" fill="#746EF8"/>
  <rect x="528" y="72" width="366" height="236" rx="12" fill="#FFF4BE"/>
  <rect x="528" y="336" width="366" height="246" rx="12" fill="#FFF4BE"/>
  <text x="552" y="112" fill="#000" font-family="Arial Black, Arial, sans-serif" font-size="18">NET WORTH OVERVIEW</text>
  <text x="552" y="374" fill="#000" font-family="Arial Black, Arial, sans-serif" font-size="18">MORTGAGE PAYMENTS</text>
  <g transform="translate(560 142)">
    <rect x="0" y="0" width="142" height="24" rx="12" fill="#FFB13F"/>
    <rect x="152" y="0" width="112" height="24" rx="12" fill="#EC68D8"/>
    <rect x="274" y="0" width="54" height="24" rx="12" fill="#877C67"/>
    <rect x="0" y="42" width="110" height="24" rx="12" fill="#FFB13F"/>
    <rect x="120" y="42" width="142" height="24" rx="12" fill="#EC68D8"/>
    <rect x="272" y="42" width="56" height="24" rx="12" fill="#877C67"/>
    <rect x="0" y="84" width="174" height="24" rx="12" fill="#FFB13F"/>
    <rect x="184" y="84" width="78" height="24" rx="12" fill="#EC68D8"/>
    <rect x="272" y="84" width="56" height="24" rx="12" fill="#877C67"/>
  </g>
  <g transform="translate(560 410)">
    <rect x="0" y="0" width="80" height="24" rx="12" fill="#FFB13F"/>
    <rect x="90" y="0" width="126" height="24" rx="12" fill="#EC68D8"/>
    <rect x="226" y="0" width="92" height="24" rx="12" fill="#877C67"/>
    <rect x="0" y="42" width="126" height="24" rx="12" fill="#FFB13F"/>
    <rect x="136" y="42" width="68" height="24" rx="12" fill="#EC68D8"/>
    <rect x="214" y="42" width="104" height="24" rx="12" fill="#877C67"/>
    <rect x="0" y="84" width="94" height="24" rx="12" fill="#FFB13F"/>
    <rect x="104" y="84" width="160" height="24" rx="12" fill="#EC68D8"/>
    <rect x="274" y="84" width="44" height="24" rx="12" fill="#877C67"/>
  </g>
</svg>
