<svg xmlns="http://www.w3.org/2000/svg" viewBox="0 0 960 540" role="img" aria-labelledby="title">
  <title id="title">Understand your lab and map your next steps</title>
  <rect width="960" height="540" fill="#000"/>
  <rect x="54" y="42" width="852" height="430" rx="14" fill="#A9957A"/>
  <g font-family="Arial Black, Arial, sans-serif" font-weight="900" font-size="58">
    <rect x="92" y="332" width="335" height="64" rx="10" fill="#DDF237"/>
    <text x="102" y="382" fill="#000">Understand</text>
    <rect x="448" y="332" width="144" height="64" rx="32" fill="#EC68D8"/>
    <rect x="610" y="332" width="118" height="64" rx="10" fill="#000"/>
    <text x="620" y="382" fill="#fff">your</text>
    <rect x="744" y="332" width="126" height="64" rx="32" fill="#EC68D8"/>
    <rect x="92" y="408" width="88" height="64" rx="10" fill="#EC68D8"/>
    <text x="196" y="458" fill="#000">lab</text>
    <rect x="282" y="408" width="100" height="64" rx="32" fill="#FFB13F"/>
    <text x="398" y="458" fill="#000">and</text>
    <circle cx="633" cy="440" r="36" fill="#DDF237"/>
    <rect x="688" y="408" width="110" height="64" rx="10" fill="#000"/>
    <text x="698" y="458" fill="#fff">map</text>
    <rect x="92" y="484" width="160" height="42" rx="10" fill="#FFF4BE"/>
    <text x="100" y="526" fill="#000" font-size="48">out</text>
    <circle cx="296" cy="506" r="32" fill="#DDF237"/>
    <rect x="350" y="484" width="145" height="42" rx="10" fill="#FFB13F"/>
    <text x="358" y="526" fill="#000" font-size="48">your</text>
    <circle cx="526" cy="506" r="32" fill="#EC68D8"/>
    <rect x="580" y="484" width="184" height="42" rx="10" fill="#000"/>
    <text x="588" y="526" fill="#fff" font-size="48">next</text>
    <rect x="784" y="484" width="108" height="42" rx="21" fill="#EC68D8"/>
  </g>
  <g transform="translate(108 420)" fill="#FFF4BE">
    <ellipse cx="24" cy="8" rx="7" ry="18"/>
    <ellipse cx="24" cy="40" rx="7" ry="18"/>
    <ellipse cx="8" cy="24" rx="18" ry="7"/>
    <ellipse cx="40" cy="24" rx="18" ry="7"/>
  </g>
</svg>
