<svg xmlns="http://www.w3.org/2000/svg" viewBox="0 0 960 640" role="img" aria-labelledby="title">
  <title id="title">Investment projection screen</title>
  <rect width="960" height="640" fill="#000"/>
  <rect x="52" y="54" width="140" height="532" rx="10" fill="#171717"/>
  <rect x="218" y="54" width="304" height="532" rx="12" fill="#514AF1"/>
  <text x="252" y="96" fill="#fff" font-family="Arial Black, Arial, sans-serif" font-size="18">INVESTMENTS</text>
  <text x="460" y="38" fill="#EC68D8" font-family="Arial Black, Arial, sans-serif" font-size="24" font-weight="900">tinkerer</text>
  <circle cx="904" cy="36" r="17" fill="#EC68D8"/>
  <g fill="#746EF8">
    <rect x="252" y="130" width="226" height="40" rx="6"/>
    <rect x="252" y="206" width="226" height="40" rx="6"/>
    <rect x="252" y="282" width="226" height="40" rx="6"/>
    <rect x="252" y="406" width="226" height="40" rx="6"/>
    <rect x="252" y="482" width="122" height="40" rx="6"/>
  </g>
  <g transform="translate(252 354)">
    <circle cx="0" cy="0" r="18" fill="#DDF237"/>
    <circle cx="34" cy="0" r="18" fill="#DDF237"/>
    <circle cx="68" cy="0" r="18" fill="#DDF237"/>
    <circle cx="102" cy="0" r="18" fill="#DDF237"/>
    <circle cx="136" cy="0" r="18" fill="#DDF237"/>
    <circle cx="170" cy="0" r="18" fill="#DDF237"/>
  </g>
  <rect x="548" y="72" width="356" height="214" rx="12" fill="#FFF4BE"/>
  <rect x="548" y="314" width="356" height="246" rx="12" fill="#FFF4BE"/>
  <text x="572" y="110" fill="#000" font-family="Arial Black, Arial, sans-serif" font-size="18">INVESTMENTS PROJECTION</text>
  <text x="572" y="354" fill="#000" font-family="Arial Black, Arial, sans-serif" font-size="18">MONTHLY SAVINGS</text>
  <g transform="translate(586 150)">
    <rect x="0" y="54" width="42" height="82" rx="21" fill="#E1D7A8"/>
    <rect x="54" y="40" width="42" height="96" rx="21" fill="#E1D7A8"/>
    <rect x="108" y="28" width="42" height="108" rx="21" fill="#E1D7A8"/>
    <rect x="162" y="14" width="42" height="122" rx="21" fill="#A9957A"/>
    <rect x="216" y="74" width="42" height="62" rx="21" fill="#EC68D8"/>
    <rect x="270" y="42" width="42" height="94" rx="21" fill="#EC68D8"/>
    <rect x="0" y="126" width="42" height="10" rx="5" fill="#DDF237"/>
    <rect x="54" y="116" width="42" height="20" rx="10" fill="#FFB13F"/>
    <rect x="108" y="104" width="42" height="32" rx="16" fill="#EC68D8"/>
    <rect x="162" y="96" width="42" height="40" rx="20" fill="#EC68D8"/>
  </g>
  <g transform="translate(586 402)">
    <rect x="0" y="0" width="18" height="108" rx="9" fill="#EC68D8"/>
    <rect x="28" y="0" width="18" height="108" rx="9" fill="#FFB13F"/>
    <rect x="56" y="0" width="18" height="108" rx="9" fill="#DDF237"/>
    <rect x="90" y="0" width="178" height="108" rx="54" fill="#514AF1"/>
    <rect x="288" y="0" width="54" height="108" rx="27" fill="#E1D7A8"/>
  </g>
</svg>
