<svg xmlns="http://www.w3.org/2000/svg" viewBox="0 0 960 640" role="img" aria-labelledby="title">
  <title id="title">Tinkerer dashboard illustration</title>
  <rect width="960" height="640" rx="20" fill="#000"/>
  
  <!-- Sidebar -->
  <rect x="48" y="48" width="144" height="544" rx="16" fill="#171717"/>
  <g font-family="Arial Black, Arial, sans-serif" font-weight="900" font-size="16">
    <text x="64" y="232" fill="#fff">DASHBOARD</text>
    <text x="64" y="296" fill="#fff">BOOKINGS</text>
    <text x="64" y="360" fill="#fff">TOOLS</text>
    <text x="64" y="424" fill="#fff">PROJECTS</text>
  </g>

  <!-- Header -->
  <rect x="224" y="48" width="688" height="96" rx="16" fill="#514AF1"/>
  <rect x="248" y="72" width="256" height="16" rx="8" fill="#6E68F6"/>
  <rect x="248" y="96" width="400" height="24" rx="12" fill="#746EF8"/>

  <!-- Buttons Row -->
  <rect x="224" y="168" width="688" height="72" rx="16" fill="#FFF4BE"/>
  <g fill="#E1D7A8">
    <rect x="256" y="184" width="112" height="40" rx="8"/>
    <rect x="384" y="184" width="112" height="40" rx="8"/>
    <rect x="512" y="184" width="112" height="40" rx="8"/>
    <rect x="640" y="184" width="112" height="40" rx="8"/>
    <rect x="768" y="184" width="112" height="40" rx="8"/>
  </g>

  <!-- Left Panel -->
  <rect x="224" y="272" width="328" height="320" rx="16" fill="#FFF4BE"/>
  <g fill="#E1D7A8">
    <rect x="248" y="408" width="40" height="152" rx="20"/>
    <rect x="296" y="392" width="40" height="168" rx="20"/>
    <rect x="344" y="432" width="40" height="128" rx="20"/>
    <rect x="392" y="368" width="40" height="192" rx="20"/>
  </g>
  <g fill="#FFB13F">
    <rect x="440" y="496" width="40" height="64" rx="20"/>
    <rect x="488" y="424" width="40" height="136" rx="20"/>
  </g>

  <!-- Right Panel -->
  <rect x="584" y="272" width="328" height="320" rx="16" fill="#FFF4BE"/>
  <rect x="608" y="296" width="280" height="72" rx="36" fill="#DDF237"/>
  <rect x="608" y="384" width="160" height="96" rx="48" fill="#FFB13F"/>
  <rect x="608" y="496" width="72" height="72" rx="36" fill="#FFC05B"/>
  <rect x="696" y="496" width="72" height="72" rx="36" fill="#FFC05B"/>
  <rect x="784" y="384" width="44" height="184" rx="22" fill="#EC68D8"/>
  <rect x="844" y="384" width="44" height="112" rx="22" fill="#514AF1"/>
  <rect x="844" y="512" width="44" height="56" rx="22" fill="#5E58E8"/>
</svg>
